# xmcd CD database file
#
# Track frame offsets:
#	150
#	15053
#	28956
#	44549
#	65728
#	83032
#	100443
#	113856
#	131165
#	147781
#	163451
#	180327
#	197709
#
# Disc length: 2846 seconds
#
# Revision: 0
# Processed by: cddbd v1.5.2PL0 Copyright (c) Steve Scherf et al.
# Submitted via: CDex 1.79
#
DISCID=b60b1c0d
DTITLE=Danny Wuenschel - Lonesome Road
DYEAR=2016
DGENRE=Country
TTITLE0=Lonesome Road
TTITLE1=Oh What A Fool
TTITLE2=Ruby Dont Take Your Love To Town
TTITLE3=Hell And I Want You 
TTITLE4=You And Me And The Devil Makes Three
TTITLE5=Louisiana Summernight 
TTITLE6=You Took My Sweet Sweet Girl 
TTITLE7=Give My Love To Rose 
TTITLE8=Hangover Blues 
TTITLE9=Laura Wood 
TTITLE10=A Bottle Of Whisky 
TTITLE11=Okie From Muskogee 
TTITLE12=I' m On My Way 
EXTD=YEAR: 2016
EXTT0=
EXTT1=
EXTT2=
EXTT3=
EXTT4=
EXTT5=
EXTT6=
EXTT7=
EXTT8=
EXTT9=
EXTT10=
EXTT11=
EXTT12=
PLAYORDER=
